<svg xmlns="http://www.w3.org/2000/svg" xmlns:xlink="http://www.w3.org/1999/xlink" viewBox="0 0 721.99 201.85"><defs><style>.cls-1,.cls-10,.cls-11,.cls-12,.cls-13,.cls-14,.cls-2,.cls-3,.cls-4,.cls-5,.cls-6,.cls-7,.cls-8,.cls-9{stroke:#0a0ae0;stroke-miterlimit:10;}.cls-1{fill:url(#linear-gradient);}.cls-2{fill:url(#linear-gradient-2);}.cls-3{fill:url(#linear-gradient-3);}.cls-4{fill:url(#linear-gradient-4);}.cls-5{fill:url(#linear-gradient-5);}.cls-6{fill:url(#linear-gradient-6);}.cls-7{fill:url(#linear-gradient-7);}.cls-8{fill:url(#linear-gradient-8);}.cls-9{fill:url(#linear-gradient-9);}.cls-10{fill:url(#linear-gradient-10);}.cls-11{fill:url(#linear-gradient-11);}.cls-12{fill:url(#linear-gradient-12);}.cls-13{fill:url(#linear-gradient-13);}.cls-14{fill:url(#linear-gradient-14);}</style><linearGradient id="linear-gradient" x1="0.6" y1="85.71" x2="110.27" y2="85.71" gradientUnits="userSpaceOnUse"><stop offset="0" stop-color="#008082"/><stop offset="1" stop-color="aqua"/></linearGradient><linearGradient id="linear-gradient-2" x1="106.25" y1="135.27" x2="209.81" y2="135.27" xlink:href="#linear-gradient"/><linearGradient id="linear-gradient-3" x1="218.39" y1="117.24" x2="290.33" y2="117.24" xlink:href="#linear-gradient"/><linearGradient id="linear-gradient-4" x1="292.62" y1="116.36" x2="383.88" y2="116.36" xlink:href="#linear-gradient"/><linearGradient id="linear-gradient-5" x1="395.67" y1="114.97" x2="491.17" y2="114.97" xlink:href="#linear-gradient"/><linearGradient id="linear-gradient-6" x1="498.9" y1="104.15" x2="562.69" y2="104.15" xlink:href="#linear-gradient"/><linearGradient id="linear-gradient-7" x1="592.51" y1="89.14" x2="709.14" y2="89.14" xlink:href="#linear-gradient"/><linearGradient id="linear-gradient-8" x1="12.6" y1="78.76" x2="122.27" y2="78.76" gradientUnits="userSpaceOnUse"><stop offset="0" stop-color="#00fd82"/><stop offset="1" stop-color="aqua"/></linearGradient><linearGradient id="linear-gradient-9" x1="118.25" y1="128.32" x2="221.81" y2="128.32" xlink:href="#linear-gradient-8"/><linearGradient id="linear-gradient-10" x1="230.39" y1="110.28" x2="302.33" y2="110.28" xlink:href="#linear-gradient-8"/><linearGradient id="linear-gradient-11" x1="304.62" y1="109.4" x2="395.88" y2="109.4" xlink:href="#linear-gradient-8"/><linearGradient id="linear-gradient-12" x1="407.67" y1="108.01" x2="503.18" y2="108.01" xlink:href="#linear-gradient-8"/><linearGradient id="linear-gradient-13" x1="510.9" y1="97.19" x2="574.69" y2="97.19" xlink:href="#linear-gradient-8"/><linearGradient id="linear-gradient-14" x1="604.51" y1="82.18" x2="721.14" y2="82.18" xlink:href="#linear-gradient-8"/></defs><g id="Layer_2" data-name="Layer 2"><g id="Layer_1-2" data-name="Layer 1"><path class="cls-1" d="M53.61,164a102.28,102.28,0,0,1-29.55-4.27Q9.81,155.43.6,148.58L13.81,111.8a76.41,76.41,0,0,0,19.38,9.94A62.52,62.52,0,0,0,54,125.48a35.57,35.57,0,0,0,9.3-1,9.85,9.85,0,0,0,4.95-2.78,6.49,6.49,0,0,0,1.56-4.38,7.28,7.28,0,0,0-3.65-6.42,34.41,34.41,0,0,0-9.64-4q-6-1.6-13.13-3.42A104.59,104.59,0,0,1,29,98.76a52.41,52.41,0,0,1-13.2-7.91A35.23,35.23,0,0,1,6.16,77.91q-3.66-8-3.65-20A51.36,51.36,0,0,1,8.85,32.58a46.26,46.26,0,0,1,19-18.28Q40.4,7.46,59.17,7.46a94.2,94.2,0,0,1,24.34,3.2,68.6,68.6,0,0,1,21.55,9.84L92.72,57.06a84.29,84.29,0,0,0-17.47-8.34,52.42,52.42,0,0,0-16.43-2.78,27.68,27.68,0,0,0-9.38,1.29,10,10,0,0,0-5,3.42A8.1,8.1,0,0,0,43,55.35a6.86,6.86,0,0,0,3.65,6.1,34.8,34.8,0,0,0,9.64,3.74q6,1.5,13.21,3.21a91,91,0,0,1,14.34,4.7A53.08,53.08,0,0,1,97,81a35.57,35.57,0,0,1,9.64,12.83q3.66,7.92,3.65,19.67a50.87,50.87,0,0,1-6.34,25.12A47,47,0,0,1,85.07,157Q72.56,164,53.61,164Z"/><path class="cls-2" d="M205,89.44q-4.78-9.85-12.15-15a26.22,26.22,0,0,0-15.24-5.19,25.35,25.35,0,0,0-16.66,6,33.29,33.29,0,0,0-4.53,4.58L157.88,71H127.42L106.25,201.35h32.32l7.25-44.4a21,21,0,0,0,6.56,7.45,27.65,27.65,0,0,0,15.8,4.57,32.64,32.64,0,0,0,15.95-4.13,43.11,43.11,0,0,0,13.3-11.62,57.62,57.62,0,0,0,9.09-17.59,70.6,70.6,0,0,0,3.29-21.91Q209.81,99.29,205,89.44Zm-29.75,37.83a18,18,0,0,1-4.93,7.65,11,11,0,0,1-7.44,2.73,9.94,9.94,0,0,1-8.51-4.22q-3.07-4.23-3.08-10.91a34.15,34.15,0,0,1,1.79-11.62,17.63,17.63,0,0,1,5-7.65,11,11,0,0,1,7.36-2.73,9.93,9.93,0,0,1,8.51,4.23q3.08,4.22,3.08,10.91A34,34,0,0,1,175.26,127.27Z"/><path class="cls-3" d="M270.52,73.16a28,28,0,0,0-7.65,6.49L264.44,70H234l-15.59,96.24h32.32l7.3-44.51q1.71-10.2,6.65-14.61t12.94-4.4a31,31,0,0,1,3.37.18c1.09.12,2.31.29,3.64.53l5.72-35.19A39.39,39.39,0,0,0,270.52,73.16Z"/><path class="cls-4" d="M335.11,166.24q-12.89,0-22.46-5.54a37.64,37.64,0,0,1-14.81-15.57q-5.22-10-5.22-23.4a62,62,0,0,1,6.3-28.33,49.76,49.76,0,0,1,17.3-19.71,44.94,44.94,0,0,1,25.18-7.21q13,0,22.53,5.54A38,38,0,0,1,378.66,87.5q5.22,9.94,5.22,23.49a62.17,62.17,0,0,1-6.29,28.33A50,50,0,0,1,360.35,159,44.79,44.79,0,0,1,335.11,166.24Zm1.85-31a11,11,0,0,0,7.44-2.72,18.05,18.05,0,0,0,4.94-7.74,35.53,35.53,0,0,0,1.79-11.88,19.55,19.55,0,0,0-3-10.82,9.62,9.62,0,0,0-8.58-4.67,11.12,11.12,0,0,0-7.37,2.73,17.68,17.68,0,0,0-5,7.74,35.27,35.27,0,0,0-1.79,11.88q0,6.87,3.07,11.17A9.87,9.87,0,0,0,337,135.27Z"/><path class="cls-5" d="M458.85,66l-7.58,46.28q-1.44,9.33-5.08,13.81a11.26,11.26,0,0,1-9.08,4.49q-4.87,0-6.73-4.14t-.57-12.05L437.68,66H405.35l-8.58,53.14q-2.43,15,.5,24.9t9.87,15a27.21,27.21,0,0,0,16.38,5q8,0,16.09-5.1a32.1,32.1,0,0,0,7.07-6.18l-1.56,9.52h30.46L491.17,66Z"/><path class="cls-6" d="M542,100.28h16l4.72-29h-16l4.37-26.92H518.78l-4.37,26.92H503.62l-4.72,29h10.8l-3.94,24.28q-2,12.49.86,21.38a24.39,24.39,0,0,0,9.87,13.46q7,4.57,17,4.57a48,48,0,0,0,11.23-1.32,30.11,30.11,0,0,0,9.94-4.31L551,131.6a25.4,25.4,0,0,1-3.5,1.67,10.39,10.39,0,0,1-3.65.61A5.49,5.49,0,0,1,539,131.6c-1.05-1.53-1.34-3.93-.86-7.22Z"/><path class="cls-7" d="M665.33,164h43.81l-25.54-46a46,46,0,0,0,16.15-17.37q6.78-12.5,6.78-29.82t-6.78-30a47.13,47.13,0,0,0-19.21-19.57q-12.42-6.84-29.46-6.84H592.51V164h41V126.34H644.7Zm-4.25-106q4.08,4.69,4.08,12.83t-4.08,12.83q-4.1,4.69-12.6,4.7h-15V53.21h15Q657,53.21,661.08,57.92Z"/><path class="cls-8" d="M65.61,157a102.28,102.28,0,0,1-29.55-4.28q-14.25-4.28-23.46-11.12l13.21-36.78a76.76,76.76,0,0,0,19.38,10A62.78,62.78,0,0,0,66,118.53a35.57,35.57,0,0,0,9.3-1,10,10,0,0,0,4.95-2.78,6.53,6.53,0,0,0,1.57-4.39A7.29,7.29,0,0,0,78.13,104a34.31,34.31,0,0,0-9.65-4q-6-1.61-13.12-3.42A103.69,103.69,0,0,1,41,91.8a52,52,0,0,1-13.21-7.91A35.23,35.23,0,0,1,18.16,71q-3.64-8-3.65-20a51.38,51.38,0,0,1,6.34-25.34A46.32,46.32,0,0,1,39.8,7.34Q52.4.5,71.17.5A93.78,93.78,0,0,1,95.51,3.71a68.81,68.81,0,0,1,21.55,9.83L104.72,50.11a83.29,83.29,0,0,0-17.47-8.34A52.41,52.41,0,0,0,70.83,39a27.73,27.73,0,0,0-9.39,1.28,10,10,0,0,0-4.95,3.42A8.07,8.07,0,0,0,55,48.4a6.86,6.86,0,0,0,3.65,6.09,34.18,34.18,0,0,0,9.64,3.74q6,1.5,13.21,3.21a92,92,0,0,1,14.34,4.7A53.38,53.38,0,0,1,109,74.05a35.46,35.46,0,0,1,9.64,12.83q3.66,7.92,3.65,19.67a50.94,50.94,0,0,1-6.34,25.13,47.08,47.08,0,0,1-18.86,18.39Q84.56,157,65.61,157Z"/><path class="cls-9" d="M217,82.48q-4.78-9.86-12.15-15a26.15,26.15,0,0,0-15.24-5.19,25.34,25.34,0,0,0-16.66,6,34.45,34.45,0,0,0-4.53,4.58l1.45-8.8H139.42L118.25,194.39h32.32L157.82,150a21,21,0,0,0,6.56,7.44,27.58,27.58,0,0,0,15.8,4.57,32.64,32.64,0,0,0,15.95-4.13,43.21,43.21,0,0,0,13.3-11.61,57.46,57.46,0,0,0,9.09-17.6,70.55,70.55,0,0,0,3.29-21.91Q221.81,92.35,217,82.48Zm-29.75,37.83a18,18,0,0,1-4.93,7.66,11,11,0,0,1-7.44,2.72,9.93,9.93,0,0,1-8.51-4.22q-3.07-4.23-3.08-10.91A34,34,0,0,1,165.09,104a17.67,17.67,0,0,1,5-7.66,11.09,11.09,0,0,1,7.36-2.72A10,10,0,0,1,186,97.79Q189,102,189.05,108.7A34,34,0,0,1,187.26,120.31Z"/><path class="cls-10" d="M282.52,66.21a27.6,27.6,0,0,0-7.64,6.49L276.45,63H246l-15.59,96.25h32.32l7.3-44.52q1.71-10.2,6.65-14.6t12.95-4.4c1.14,0,2.26.06,3.36.17s2.31.3,3.64.53l5.72-35.19A39.3,39.3,0,0,0,282.52,66.21Z"/><path class="cls-11" d="M347.11,159.29q-12.89,0-22.46-5.55a37.55,37.55,0,0,1-14.8-15.57q-5.24-10-5.23-23.4a62,62,0,0,1,6.3-28.33,49.77,49.77,0,0,1,17.31-19.71,45,45,0,0,1,25.17-7.21q13,0,22.53,5.54a38,38,0,0,1,14.73,15.49q5.22,9.95,5.22,23.49a62.2,62.2,0,0,1-6.29,28.33,50,50,0,0,1-17.24,19.7A44.8,44.8,0,0,1,347.11,159.29Zm1.86-31a11,11,0,0,0,7.43-2.73,18.05,18.05,0,0,0,4.94-7.74A35.44,35.44,0,0,0,363.13,106a19.58,19.58,0,0,0-3-10.82,9.61,9.61,0,0,0-8.58-4.66,11.07,11.07,0,0,0-7.37,2.73,17.62,17.62,0,0,0-5,7.74,35.17,35.17,0,0,0-1.79,11.87q0,6.87,3.07,11.18A9.89,9.89,0,0,0,349,128.32Z"/><path class="cls-12" d="M470.85,59l-7.58,46.27q-1.44,9.33-5.08,13.82a11.25,11.25,0,0,1-9.08,4.48c-3.25,0-5.49-1.37-6.73-4.13s-1.43-6.78-.57-12L449.68,59H417.35l-8.58,53.14q-2.43,15,.5,24.89t9.87,15a27.26,27.26,0,0,0,16.38,5q8,0,16.09-5.11a32.37,32.37,0,0,0,7.08-6.18l-1.57,9.53h30.46L503.18,59Z"/><path class="cls-13" d="M554,93.32h16l4.72-29h-16l4.38-26.92H530.78l-4.37,26.92H515.62l-4.72,29h10.8l-3.94,24.28q-2,12.5.86,21.38a24.39,24.39,0,0,0,9.87,13.46q7,4.58,17,4.58a48,48,0,0,0,11.23-1.33,29.81,29.81,0,0,0,9.94-4.31L563,124.64a25.4,25.4,0,0,1-3.5,1.67,10.35,10.35,0,0,1-3.65.62,5.48,5.48,0,0,1-4.86-2.29q-1.58-2.28-.86-7.22Z"/><path class="cls-14" d="M677.33,157h43.81L695.6,111a46.06,46.06,0,0,0,16.15-17.36q6.78-12.51,6.78-29.83t-6.78-30a47.19,47.19,0,0,0-19.21-19.57q-12.42-6.84-29.46-6.84H604.51V157h41V119.38H656.7ZM673.08,51q4.08,4.71,4.08,12.83t-4.08,12.83q-4.1,4.71-12.6,4.7h-15V46.26h15Q669,46.26,673.08,51Z"/></g></g></svg>