<svg xmlns="http://www.w3.org/2000/svg" xmlns:xlink="http://www.w3.org/1999/xlink" viewBox="0 0 754.51 238.7"><defs><style>.cls-1,.cls-10,.cls-11,.cls-12,.cls-13,.cls-14,.cls-15,.cls-16,.cls-17,.cls-18,.cls-2,.cls-3,.cls-4,.cls-5,.cls-6,.cls-7,.cls-8,.cls-9{stroke:#0a0ae0;}.cls-1,.cls-10,.cls-11,.cls-12,.cls-13,.cls-14,.cls-15,.cls-16,.cls-17,.cls-18,.cls-19,.cls-2,.cls-3,.cls-4,.cls-5,.cls-6,.cls-7,.cls-8,.cls-9{stroke-miterlimit:10;}.cls-1{fill:url(#linear-gradient);}.cls-2{fill:url(#linear-gradient-2);}.cls-3{fill:url(#linear-gradient-3);}.cls-4{fill:url(#linear-gradient-4);}.cls-5{fill:url(#linear-gradient-5);}.cls-6{fill:url(#linear-gradient-6);}.cls-7{fill:url(#linear-gradient-7);}.cls-8{fill:url(#linear-gradient-8);}.cls-9{fill:url(#linear-gradient-9);}.cls-10{fill:url(#linear-gradient-10);}.cls-11{fill:url(#linear-gradient-11);}.cls-12{fill:url(#linear-gradient-12);}.cls-13{fill:url(#linear-gradient-13);}.cls-14{fill:url(#linear-gradient-14);}.cls-15{fill:url(#linear-gradient-15);}.cls-16{fill:url(#linear-gradient-16);}.cls-17{fill:url(#linear-gradient-17);}.cls-18{fill:url(#linear-gradient-18);}.cls-19{fill:#020202;stroke:#000;}</style><linearGradient id="linear-gradient" x1="31.45" y1="82.64" x2="141.13" y2="82.64" gradientUnits="userSpaceOnUse"><stop offset="0" stop-color="#002782"/><stop offset="1" stop-color="aqua"/></linearGradient><linearGradient id="linear-gradient-2" x1="137.1" y1="132.2" x2="240.66" y2="132.2" xlink:href="#linear-gradient"/><linearGradient id="linear-gradient-3" x1="249.24" y1="114.16" x2="321.19" y2="114.16" xlink:href="#linear-gradient"/><linearGradient id="linear-gradient-4" x1="323.48" y1="113.28" x2="414.74" y2="113.28" xlink:href="#linear-gradient"/><linearGradient id="linear-gradient-5" x1="426.52" y1="111.89" x2="522.03" y2="111.89" xlink:href="#linear-gradient"/><linearGradient id="linear-gradient-6" x1="529.75" y1="101.07" x2="593.55" y2="101.07" xlink:href="#linear-gradient"/><linearGradient id="linear-gradient-7" x1="623.36" y1="86.06" x2="739.99" y2="86.06" xlink:href="#linear-gradient"/><linearGradient id="linear-gradient-8" x1="1.72" y1="189.08" x2="125.25" y2="189.08" gradientUnits="userSpaceOnUse"><stop offset="0" stop-color="#004482"/><stop offset="1" stop-color="aqua"/></linearGradient><linearGradient id="linear-gradient-9" x1="184.96" y1="189.08" x2="744.37" y2="189.08" xlink:href="#linear-gradient-8"/><linearGradient id="linear-gradient-10" x1="40.39" y1="78.76" x2="150.07" y2="78.76" gradientUnits="userSpaceOnUse"><stop offset="0" stop-color="#00fd82"/><stop offset="1" stop-color="aqua"/></linearGradient><linearGradient id="linear-gradient-11" x1="146.04" y1="128.32" x2="249.6" y2="128.32" xlink:href="#linear-gradient-10"/><linearGradient id="linear-gradient-12" x1="258.18" y1="110.28" x2="330.13" y2="110.28" xlink:href="#linear-gradient-10"/><linearGradient id="linear-gradient-13" x1="332.42" y1="109.4" x2="423.67" y2="109.4" xlink:href="#linear-gradient-10"/><linearGradient id="linear-gradient-14" x1="435.46" y1="108.01" x2="530.97" y2="108.01" xlink:href="#linear-gradient-10"/><linearGradient id="linear-gradient-15" x1="538.69" y1="97.19" x2="602.48" y2="97.19" xlink:href="#linear-gradient-10"/><linearGradient id="linear-gradient-16" x1="632.3" y1="82.18" x2="748.93" y2="82.18" xlink:href="#linear-gradient-10"/><linearGradient id="linear-gradient-17" x1="10.66" y1="185.2" x2="134.19" y2="185.2" xlink:href="#linear-gradient-10"/><linearGradient id="linear-gradient-18" x1="193.89" y1="185.2" x2="753.31" y2="185.2" xlink:href="#linear-gradient-10"/></defs><g id="Layer_2" data-name="Layer 2"><g id="Layer_1-2" data-name="Layer 1"><path class="cls-1" d="M84.47,160.89a102.28,102.28,0,0,1-29.55-4.27q-14.25-4.27-23.47-11.12l13.21-36.78A76.74,76.74,0,0,0,64,118.66a62.59,62.59,0,0,0,20.77,3.75,35.08,35.08,0,0,0,9.3-1,9.93,9.93,0,0,0,5-2.78,6.47,6.47,0,0,0,1.56-4.38A7.26,7.26,0,0,0,97,107.87a34.23,34.23,0,0,0-9.64-4q-6-1.6-13.13-3.42a104.59,104.59,0,0,1-14.34-4.81,52.47,52.47,0,0,1-13.21-7.91A35.21,35.21,0,0,1,37,74.83q-3.66-8-3.65-20A51.36,51.36,0,0,1,39.71,29.5,46.2,46.2,0,0,1,58.66,11.22Q71.26,4.38,90,4.38a93.65,93.65,0,0,1,24.33,3.21,68.41,68.41,0,0,1,21.56,9.83L123.58,54a83.72,83.72,0,0,0-17.47-8.33,52.14,52.14,0,0,0-16.43-2.78,27.67,27.67,0,0,0-9.38,1.28,10,10,0,0,0-5,3.42,8.13,8.13,0,0,0-1.48,4.7,6.88,6.88,0,0,0,3.65,6.1,34.88,34.88,0,0,0,9.65,3.74q6,1.5,13.21,3.21A92,92,0,0,1,114.71,70a52.83,52.83,0,0,1,13.12,7.91,35.48,35.48,0,0,1,9.65,12.83q3.65,7.92,3.65,19.67a50.94,50.94,0,0,1-6.34,25.13,47.06,47.06,0,0,1-18.86,18.38Q103.41,160.9,84.47,160.89Z"/><path class="cls-2" d="M235.87,86.36q-4.8-9.85-12.16-15a26.13,26.13,0,0,0-15.23-5.2,25.35,25.35,0,0,0-16.66,6,33.86,33.86,0,0,0-4.53,4.58l1.45-8.81H158.27L137.1,198.27h32.33l7.24-44.39a21.06,21.06,0,0,0,6.56,7.44A27.63,27.63,0,0,0,199,165.89a32.67,32.67,0,0,0,16-4.13,43.22,43.22,0,0,0,13.3-11.62,57.27,57.27,0,0,0,9.08-17.59,70.6,70.6,0,0,0,3.29-21.91Q240.66,96.21,235.87,86.36Zm-29.75,37.83a17.87,17.87,0,0,1-4.94,7.65,11,11,0,0,1-7.43,2.73,9.94,9.94,0,0,1-8.51-4.22q-3.09-4.23-3.08-10.91A33.8,33.8,0,0,1,184,107.83a17.69,17.69,0,0,1,5-7.66,11.12,11.12,0,0,1,7.37-2.73,9.94,9.94,0,0,1,8.51,4.23q3.07,4.22,3.08,10.91A34,34,0,0,1,206.12,124.19Z"/><path class="cls-3" d="M301.38,70.09a27.62,27.62,0,0,0-7.65,6.49l1.57-9.66H264.84l-15.6,96.25h32.33l7.3-44.52q1.71-10.2,6.65-14.61t12.94-4.39a33.44,33.44,0,0,1,3.36.17c1.1.12,2.31.3,3.65.53l5.72-35.19A39.27,39.27,0,0,0,301.38,70.09Z"/><path class="cls-4" d="M366,163.17q-12.87,0-22.45-5.55a37.64,37.64,0,0,1-14.81-15.57q-5.22-10-5.22-23.4a62.17,62.17,0,0,1,6.29-28.33,49.85,49.85,0,0,1,17.31-19.71,44.92,44.92,0,0,1,25.18-7.21q13,0,22.52,5.54a38.11,38.11,0,0,1,14.74,15.48q5.22,9.94,5.22,23.5a62,62,0,0,1-6.3,28.32A50,50,0,0,1,391.21,156,44.83,44.83,0,0,1,366,163.17Zm1.86-31a11,11,0,0,0,7.44-2.73,18,18,0,0,0,4.93-7.74A35.23,35.23,0,0,0,382,109.85,19.57,19.57,0,0,0,379,99a9.61,9.61,0,0,0-8.58-4.66A11.11,11.11,0,0,0,363,97.09a17.76,17.76,0,0,0-5,7.75,35.44,35.44,0,0,0-1.78,11.87q0,6.87,3.07,11.18A9.89,9.89,0,0,0,367.82,132.2Z"/><path class="cls-5" d="M489.71,62.89l-7.59,46.27q-1.42,9.33-5.07,13.81a11.25,11.25,0,0,1-9.09,4.49,6.75,6.75,0,0,1-6.72-4.13q-1.86-4.14-.57-12.06l7.87-48.38H436.21L427.63,116q-2.44,15,.5,24.9t9.87,15a27.21,27.21,0,0,0,16.38,5,30,30,0,0,0,16.09-5.1,32.32,32.32,0,0,0,7.07-6.18L476,159.13h30.47L522,62.89Z"/><path class="cls-6" d="M572.86,97.2h16l4.72-29h-16L582,41.24H549.64l-4.37,26.92h-10.8l-4.72,29h10.81l-3.94,24.28q-2,12.49.86,21.38a24.29,24.29,0,0,0,9.87,13.46q7,4.58,17,4.57a48.1,48.1,0,0,0,11.23-1.32,30.11,30.11,0,0,0,9.94-4.31l-3.72-26.74a25.4,25.4,0,0,1-3.5,1.67,10.39,10.39,0,0,1-3.65.61,5.51,5.51,0,0,1-4.87-2.28c-1-1.53-1.33-3.93-.85-7.22Z"/><path class="cls-7" d="M696.19,160.89H740l-25.53-46A46.06,46.06,0,0,0,730.61,97.5q6.78-12.51,6.78-29.83t-6.78-30A47.25,47.25,0,0,0,711.4,18.06Q699,11.22,681.94,11.22H623.36V160.89h41V123.26h11.18Zm-4.26-106Q696,59.55,696,67.67T691.93,80.5q-4.08,4.69-12.6,4.7h-15V50.13h15C685,50.13,689.21,51.71,691.93,54.84Z"/><polygon class="cls-8" points="23.61 182.15 1.72 196.02 125.25 196.02 125.25 182.15 23.61 182.15"/><polygon class="cls-9" points="744.37 182.15 184.96 182.15 184.96 196.02 730.5 196.02 744.37 182.15"/><path class="cls-10" d="M93.4,157a102.26,102.26,0,0,1-29.54-4.28q-14.26-4.28-23.47-11.12L53.6,104.84a76.76,76.76,0,0,0,19.38,10,62.82,62.82,0,0,0,20.77,3.74,35.57,35.57,0,0,0,9.3-1,10,10,0,0,0,5-2.78,6.48,6.48,0,0,0,1.57-4.39,7.29,7.29,0,0,0-3.65-6.41,34.31,34.31,0,0,0-9.65-4q-6-1.61-13.12-3.42A104.59,104.59,0,0,1,68.81,91.8,52.18,52.18,0,0,1,55.6,83.89,35.34,35.34,0,0,1,46,71q-3.64-8-3.65-20a51.28,51.28,0,0,1,6.35-25.34A46.24,46.24,0,0,1,67.59,7.34Q80.19.5,99,.5A93.76,93.76,0,0,1,123.3,3.71a68.7,68.7,0,0,1,21.55,9.83L132.51,50.11A83.05,83.05,0,0,0,115,41.77,52.36,52.36,0,0,0,98.62,39a27.77,27.77,0,0,0-9.39,1.28,10,10,0,0,0-5,3.42A8.07,8.07,0,0,0,82.8,48.4a6.88,6.88,0,0,0,3.65,6.09,34.14,34.14,0,0,0,9.65,3.74q6,1.5,13.21,3.21a92.69,92.69,0,0,1,14.34,4.7,53.32,53.32,0,0,1,13.12,7.91,35.59,35.59,0,0,1,9.65,12.83q3.65,7.92,3.65,19.67a51,51,0,0,1-6.35,25.13,47,47,0,0,1-18.86,18.39Q112.35,157,93.4,157Z"/><path class="cls-11" d="M244.81,82.48q-4.8-9.86-12.16-15a26.12,26.12,0,0,0-15.23-5.19,25.37,25.37,0,0,0-16.67,6,34.39,34.39,0,0,0-4.52,4.58l1.45-8.8H167.21L146,194.39h32.33L185.61,150a21.06,21.06,0,0,0,6.56,7.44A27.63,27.63,0,0,0,208,162a32.6,32.6,0,0,0,15.94-4.13,43.35,43.35,0,0,0,13.31-11.61,57.66,57.66,0,0,0,9.08-17.6,70.55,70.55,0,0,0,3.29-21.91Q249.6,92.35,244.81,82.48Zm-29.75,37.83a18.06,18.06,0,0,1-4.94,7.66,11,11,0,0,1-7.44,2.72,9.93,9.93,0,0,1-8.51-4.22q-3.07-4.23-3.07-10.91A34.06,34.06,0,0,1,192.88,104a17.85,17.85,0,0,1,5-7.66,11.11,11.11,0,0,1,7.37-2.72,9.93,9.93,0,0,1,8.51,4.22q3.07,4.21,3.07,10.91A34.06,34.06,0,0,1,215.06,120.31Z"/><path class="cls-12" d="M310.32,66.21a27.79,27.79,0,0,0-7.65,6.49L304.24,63H273.77l-15.59,96.25h32.33l7.29-44.52q1.72-10.2,6.65-14.6t12.95-4.4c1.14,0,2.26.06,3.36.17s2.31.3,3.65.53l5.72-35.19A39.27,39.27,0,0,0,310.32,66.21Z"/><path class="cls-13" d="M374.9,159.29q-12.87,0-22.46-5.55a37.62,37.62,0,0,1-14.8-15.57q-5.22-10-5.22-23.4a62,62,0,0,1,6.29-28.33A49.85,49.85,0,0,1,356,66.73a45,45,0,0,1,25.17-7.21q13,0,22.53,5.54a38,38,0,0,1,14.73,15.49q5.22,9.95,5.22,23.49a62.07,62.07,0,0,1-6.29,28.33,50,50,0,0,1-17.24,19.7A44.8,44.8,0,0,1,374.9,159.29Zm1.86-31a11,11,0,0,0,7.44-2.73,18,18,0,0,0,4.93-7.74A35.44,35.44,0,0,0,390.92,106a19.49,19.49,0,0,0-3-10.82,9.61,9.61,0,0,0-8.58-4.66A11,11,0,0,0,372,93.22a17.55,17.55,0,0,0-5,7.74,35.42,35.42,0,0,0-1.79,11.87q0,6.87,3.08,11.18A9.88,9.88,0,0,0,376.76,128.32Z"/><path class="cls-14" d="M498.64,59l-7.58,46.27q-1.43,9.33-5.08,13.82a11.25,11.25,0,0,1-9.08,4.48c-3.24,0-5.48-1.37-6.72-4.13s-1.43-6.78-.57-12L477.47,59H445.15l-8.59,53.14q-2.43,15,.5,24.89t9.87,15a27.26,27.26,0,0,0,16.38,5q8,0,16.09-5.11a32.37,32.37,0,0,0,7.08-6.18l-1.57,9.53h30.47L531,59Z"/><path class="cls-15" d="M581.8,93.32h16l4.72-29h-16l4.38-26.92H558.57l-4.36,26.92h-10.8l-4.72,29h10.8l-3.93,24.28q-2,12.5.85,21.38a24.39,24.39,0,0,0,9.87,13.46q7,4.58,17,4.58a48,48,0,0,0,11.23-1.33,29.81,29.81,0,0,0,9.94-4.31l-3.71-26.74a25,25,0,0,1-3.51,1.67,10.35,10.35,0,0,1-3.65.62,5.48,5.48,0,0,1-4.86-2.29q-1.57-2.28-.86-7.22Z"/><path class="cls-16" d="M705.13,157h43.8l-25.54-46a46,46,0,0,0,16.15-17.36q6.78-12.51,6.78-29.83t-6.78-30a47.22,47.22,0,0,0-19.2-19.57q-12.44-6.84-29.46-6.84H632.3V157h41V119.38h11.17ZM700.87,51Q705,55.67,705,63.79t-4.08,12.83c-2.72,3.14-6.93,4.7-12.6,4.7H673.32V46.26h14.95C693.94,46.26,698.15,47.83,700.87,51Z"/><polygon class="cls-17" points="32.54 178.27 10.66 192.14 134.19 192.14 134.19 178.27 32.54 178.27"/><polygon class="cls-18" points="753.31 178.27 193.9 178.27 193.9 192.14 739.44 192.14 753.31 178.27"/><path class="cls-19" d="M169.93,233.2V215.7h7.85a7.64,7.64,0,0,1,4.65,1.21,3.92,3.92,0,0,1,1.63,3.31,4.34,4.34,0,0,1-.64,2.4,4.28,4.28,0,0,1-1.71,1.5,5.27,5.27,0,0,1-2.33.53l.45-.75a6.33,6.33,0,0,1,2.65.52,4.31,4.31,0,0,1,1.83,1.54,4.43,4.43,0,0,1,.67,2.51,4.06,4.06,0,0,1-1.69,3.49,8.37,8.37,0,0,1-5,1.24Zm2.5-2h5.75a6,6,0,0,0,3.18-.7,2.77,2.77,0,0,0,0-4.42,6,6,0,0,0-3.18-.7h-6v-2h5.35a5.28,5.28,0,0,0,2.95-.7,2.62,2.62,0,0,0,0-4.2,5.36,5.36,0,0,0-2.95-.7h-5.13Z"/><path class="cls-19" d="M196,233.2V220h2.3v3.6l-.23-.9a4,4,0,0,1,1.85-2.1,6.53,6.53,0,0,1,3.2-.73v2.33l-.29,0h-.26a4.1,4.1,0,0,0-3.05,1.15,4.58,4.58,0,0,0-1.13,3.33v6.6Z"/><path class="cls-19" d="M214.78,217.4a1.59,1.59,0,0,1-1.16-.45,1.48,1.48,0,0,1-.47-1.1,1.52,1.52,0,0,1,.47-1.13,1.59,1.59,0,0,1,1.16-.45,1.63,1.63,0,0,1,1.16.44,1.44,1.44,0,0,1,.46,1.09,1.57,1.57,0,0,1-.44,1.14A1.63,1.63,0,0,1,214.78,217.4Zm-1.2,15.8V220H216V233.2Z"/><path class="cls-19" d="M235.13,219.82a6.21,6.21,0,0,1,2.86.63,4.5,4.5,0,0,1,1.94,1.9,6.59,6.59,0,0,1,.7,3.22v7.63h-2.4v-7.35a4,4,0,0,0-.94-2.9,3.48,3.48,0,0,0-2.64-1,4.75,4.75,0,0,0-2.22.5A3.48,3.48,0,0,0,231,224a5.19,5.19,0,0,0-.52,2.42v6.83h-2.39V220h2.3v3.57l-.38-1a4.59,4.59,0,0,1,2-2A6.6,6.6,0,0,1,235.13,219.82Z"/><path class="cls-19" d="M258.08,232.65a7.19,7.19,0,0,1-3.44-.81,6.55,6.55,0,0,1-2.4-9,6.16,6.16,0,0,1,2.4-2.24,7.3,7.3,0,0,1,3.44-.8,6.92,6.92,0,0,1,3.1.69,5.28,5.28,0,0,1,2.24,2.11,8.18,8.18,0,0,1,0,7.18,5.48,5.48,0,0,1-2.24,2.14A6.8,6.8,0,0,1,258.08,232.65Zm.3,5.55a12.32,12.32,0,0,1-3.54-.51,7.39,7.39,0,0,1-2.79-1.47l1.15-1.85a6.79,6.79,0,0,0,2.28,1.27,8.87,8.87,0,0,0,2.82.46,4.71,4.71,0,0,0,3.45-1.1,4.54,4.54,0,0,0,1.1-3.35v-2.8l.25-2.63-.12-2.65V220h2.27V231.4q0,3.49-1.75,5.15A7.18,7.18,0,0,1,258.38,238.2Zm0-7.65a4.83,4.83,0,0,0,2.35-.55,4.12,4.12,0,0,0,1.62-1.53,4.65,4.65,0,0,0,0-4.5,4,4,0,0,0-1.62-1.51,4.94,4.94,0,0,0-2.35-.54,5,5,0,0,0-2.36.54,4,4,0,0,0-1.62,1.51,4.59,4.59,0,0,0,0,4.5A4.12,4.12,0,0,0,256,230,4.92,4.92,0,0,0,258.35,230.55Z"/><path class="cls-19" d="M278.53,217.4a1.59,1.59,0,0,1-1.16-.45,1.48,1.48,0,0,1-.47-1.1,1.52,1.52,0,0,1,.47-1.13,1.59,1.59,0,0,1,1.16-.45,1.63,1.63,0,0,1,1.16.44,1.44,1.44,0,0,1,.46,1.09,1.56,1.56,0,0,1-1.62,1.6Zm-1.2,15.8V220h2.4V233.2Z"/><path class="cls-19" d="M298.88,219.82a6.21,6.21,0,0,1,2.86.63,4.5,4.5,0,0,1,1.94,1.9,6.59,6.59,0,0,1,.7,3.22v7.63H302v-7.35A4,4,0,0,0,301,223a3.48,3.48,0,0,0-2.64-1,4.72,4.72,0,0,0-2.22.5,3.48,3.48,0,0,0-1.46,1.48,5.07,5.07,0,0,0-.52,2.42v6.83h-2.4V220h2.3v3.57l-.37-1a4.59,4.59,0,0,1,2-2A6.6,6.6,0,0,1,298.88,219.82Z"/><path class="cls-19" d="M321.83,232.65a7.19,7.19,0,0,1-3.44-.81,6.55,6.55,0,0,1-2.4-9,6.16,6.16,0,0,1,2.4-2.24,7.3,7.3,0,0,1,3.44-.8,6.92,6.92,0,0,1,3.1.69,5.28,5.28,0,0,1,2.24,2.11,8.18,8.18,0,0,1,0,7.18,5.48,5.48,0,0,1-2.24,2.14A6.8,6.8,0,0,1,321.83,232.65Zm.3,5.55a12.32,12.32,0,0,1-3.54-.51,7.39,7.39,0,0,1-2.79-1.47l1.15-1.85a6.79,6.79,0,0,0,2.28,1.27,8.87,8.87,0,0,0,2.82.46,4.71,4.71,0,0,0,3.45-1.1,4.54,4.54,0,0,0,1.1-3.35v-2.8l.25-2.63-.12-2.65V220H329V231.4q0,3.49-1.75,5.15A7.18,7.18,0,0,1,322.13,238.2Zm0-7.65a4.83,4.83,0,0,0,2.35-.55,4.12,4.12,0,0,0,1.62-1.53,4.65,4.65,0,0,0,0-4.5,4,4,0,0,0-1.62-1.51,4.94,4.94,0,0,0-2.35-.54,5,5,0,0,0-2.36.54,4,4,0,0,0-1.62,1.51,4.59,4.59,0,0,0,0,4.5,4.12,4.12,0,0,0,1.62,1.53A4.92,4.92,0,0,0,322.1,230.55Z"/><path class="cls-19" d="M369.88,233.2V215.7h2.5v17.5Z"/><path class="cls-19" d="M390.45,233.35a7.06,7.06,0,0,1-3.55-.88,6.44,6.44,0,0,1-2.45-2.41,7.24,7.24,0,0,1,0-7,6.44,6.44,0,0,1,2.45-2.38,7.66,7.66,0,0,1,7.09,0,6.27,6.27,0,0,1,2.45,2.37,7.35,7.35,0,0,1,0,7,6.35,6.35,0,0,1-2.45,2.4A7,7,0,0,1,390.45,233.35Zm0-2.1a4.48,4.48,0,0,0,2.29-.58,4.09,4.09,0,0,0,1.59-1.63,5.15,5.15,0,0,0,.57-2.47,5,5,0,0,0-.57-2.46,4.1,4.1,0,0,0-1.59-1.61,4.58,4.58,0,0,0-2.29-.58,4.51,4.51,0,0,0-2.27.58,4.26,4.26,0,0,0-1.6,1.61,4.82,4.82,0,0,0-.6,2.46,4.94,4.94,0,0,0,.6,2.47,4.25,4.25,0,0,0,1.6,1.63A4.41,4.41,0,0,0,390.45,231.25Z"/><path class="cls-19" d="M410,233.2V217.87h-6V215.7h14.48v2.17h-6V233.2Z"/><path class="cls-19" d="M454.85,221.92v-2h8.45v2Zm6.45,11.43a4.25,4.25,0,0,1-3.1-1.08,4.1,4.1,0,0,1-1.1-3.07V217.05h2.4v12a2.31,2.31,0,0,0,.54,1.65,2,2,0,0,0,1.54.57,2.8,2.8,0,0,0,1.87-.62l.75,1.72a3.37,3.37,0,0,1-1.31.7A5.61,5.61,0,0,1,461.3,233.35Z"/><path class="cls-19" d="M479.83,233.35a7,7,0,0,1-3.55-.88,6.37,6.37,0,0,1-2.45-2.41,7.24,7.24,0,0,1,0-7,6.37,6.37,0,0,1,2.45-2.38,7.66,7.66,0,0,1,7.09,0,6.34,6.34,0,0,1,2.45,2.37,7.42,7.42,0,0,1,0,7,6.42,6.42,0,0,1-2.45,2.4A7.07,7.07,0,0,1,479.83,233.35Zm0-2.1a4.51,4.51,0,0,0,2.29-.58A4.07,4.07,0,0,0,483.7,229a5,5,0,0,0,.58-2.47,4.92,4.92,0,0,0-.58-2.46,4.08,4.08,0,0,0-1.58-1.61,4.61,4.61,0,0,0-2.29-.58,4.55,4.55,0,0,0-2.28.58,4.34,4.34,0,0,0-1.6,1.61,4.82,4.82,0,0,0-.6,2.46A4.94,4.94,0,0,0,476,229a4.32,4.32,0,0,0,1.6,1.63A4.44,4.44,0,0,0,479.83,231.25Z"/><path class="cls-19" d="M526.33,233.2V215.7h2.5V231h9.47v2.18Z"/><path class="cls-19" d="M549.53,217.4a1.61,1.61,0,0,1-1.17-.45,1.51,1.51,0,0,1-.46-1.1,1.55,1.55,0,0,1,.46-1.13,1.61,1.61,0,0,1,1.17-.45,1.64,1.64,0,0,1,1.16.44,1.44,1.44,0,0,1,.46,1.09,1.56,1.56,0,0,1-1.62,1.6Zm-1.2,15.8V220h2.4V233.2Z"/><path class="cls-19" d="M560.9,221.92v-2h8.45v2Zm2.25,11.28V218.77a4.25,4.25,0,0,1,1.14-3.11,4.35,4.35,0,0,1,3.24-1.16,5.69,5.69,0,0,1,1.49.19,3.32,3.32,0,0,1,1.21.58l-.73,1.83a2.59,2.59,0,0,0-.85-.46,3,3,0,0,0-1-.17,2.1,2.1,0,0,0-1.6.59,2.49,2.49,0,0,0-.55,1.74v1.77l0,1.1V233.2Z"/><path class="cls-19" d="M584.83,233.35a7.66,7.66,0,0,1-3.74-.88,6.28,6.28,0,0,1-2.5-2.4,6.82,6.82,0,0,1-.89-3.5,7,7,0,0,1,.87-3.5,6.16,6.16,0,0,1,2.37-2.38,7.17,7.17,0,0,1,6.81,0,6.06,6.06,0,0,1,2.32,2.39,7.49,7.49,0,0,1,.83,3.59c0,.1,0,.22,0,.35s0,.26,0,.37H579.58v-1.72h10l-1,.6a4.52,4.52,0,0,0-.53-2.28,4,4,0,0,0-1.51-1.56,4.72,4.72,0,0,0-4.46,0A4,4,0,0,0,580.6,224a4.81,4.81,0,0,0-.55,2.31v.4a4.54,4.54,0,0,0,.62,2.36,4.09,4.09,0,0,0,1.71,1.61,5.26,5.26,0,0,0,2.52.58,5.44,5.44,0,0,0,2.14-.4,4.85,4.85,0,0,0,1.69-1.2l1.32,1.55a5.82,5.82,0,0,1-2.23,1.6A7.77,7.77,0,0,1,584.83,233.35Z"/></g></g></svg>