<svg xmlns="http://www.w3.org/2000/svg" xmlns:xlink="http://www.w3.org/1999/xlink" viewBox="0 0 238.92 175.08"><defs><style>.cls-1,.cls-2,.cls-3,.cls-4,.cls-5,.cls-6{stroke:#0a0ae0;stroke-miterlimit:10;}.cls-1{fill:url(#linear-gradient);}.cls-2{fill:url(#linear-gradient-2);}.cls-3{fill:url(#linear-gradient-3);}.cls-4{fill:url(#linear-gradient-4);}.cls-5{fill:url(#linear-gradient-5);}.cls-6{fill:url(#linear-gradient-6);}</style><linearGradient id="linear-gradient" x1="0.6" y1="82.33" x2="110.27" y2="82.33" gradientUnits="userSpaceOnUse"><stop offset="0" stop-color="#007282"/><stop offset="1" stop-color="aqua"/></linearGradient><linearGradient id="linear-gradient-2" x1="110.27" y1="85.75" x2="226.9" y2="85.75" xlink:href="#linear-gradient"/><linearGradient id="linear-gradient-3" x1="0.6" y1="171.4" x2="232.07" y2="171.4" xlink:href="#linear-gradient"/><linearGradient id="linear-gradient-4" x1="6.95" y1="78.76" x2="116.63" y2="78.76" gradientUnits="userSpaceOnUse"><stop offset="0" stop-color="#00fd82"/><stop offset="1" stop-color="aqua"/></linearGradient><linearGradient id="linear-gradient-5" x1="116.63" y1="82.18" x2="233.26" y2="82.18" xlink:href="#linear-gradient-4"/><linearGradient id="linear-gradient-6" x1="6.95" y1="167.83" x2="238.42" y2="167.83" xlink:href="#linear-gradient-4"/></defs><g id="Layer_2" data-name="Layer 2"><g id="Layer_1-2" data-name="Layer 1"><path class="cls-1" d="M53.61,160.59a102.28,102.28,0,0,1-29.55-4.28Q9.81,152,.6,145.19l13.21-36.77a76.73,76.73,0,0,0,19.38,9.94A62.52,62.52,0,0,0,54,122.1a35.57,35.57,0,0,0,9.3-1,9.92,9.92,0,0,0,4.95-2.78A6.49,6.49,0,0,0,69.77,114a7.27,7.27,0,0,0-3.65-6.42,34.41,34.41,0,0,0-9.64-4q-6-1.6-13.13-3.42A106,106,0,0,1,29,95.38a52.44,52.44,0,0,1-13.2-7.92A35.19,35.19,0,0,1,6.16,74.53q-3.66-8-3.65-20A51.36,51.36,0,0,1,8.85,29.2a46.2,46.2,0,0,1,19-18.28Q40.4,4.08,59.17,4.07A93.78,93.78,0,0,1,83.51,7.28a68.6,68.6,0,0,1,21.55,9.84L92.72,53.68a84.29,84.29,0,0,0-17.47-8.34,52.42,52.42,0,0,0-16.43-2.78,28,28,0,0,0-9.38,1.28,10,10,0,0,0-5,3.43A8.1,8.1,0,0,0,43,52a6.84,6.84,0,0,0,3.65,6.09,34.48,34.48,0,0,0,9.64,3.75q6,1.48,13.21,3.2a92.05,92.05,0,0,1,14.34,4.71A52.77,52.77,0,0,1,97,77.63a35.57,35.57,0,0,1,9.64,12.83q3.66,7.91,3.65,19.67a50.9,50.9,0,0,1-6.34,25.12,47,47,0,0,1-18.86,18.39Q72.56,160.59,53.61,160.59Z"/><path class="cls-2" d="M183.1,160.59h43.8l-25.53-46a46.06,46.06,0,0,0,16.15-17.36q6.78-12.51,6.78-29.83t-6.78-30a47.16,47.16,0,0,0-19.21-19.56q-12.44-6.84-29.46-6.84H110.27V160.59h41V123h11.18Zm-4.26-106q4.09,4.7,4.09,12.82t-4.09,12.83q-4.08,4.71-12.6,4.71h-15V49.83h15Q174.76,49.83,178.84,54.54Z"/><rect class="cls-3" x="0.6" y="168.23" width="231.47" height="6.35"/><path class="cls-4" d="M60,157a102.28,102.28,0,0,1-29.55-4.28Q16.16,148.46,7,141.62l13.21-36.78a76.76,76.76,0,0,0,19.38,10,62.82,62.82,0,0,0,20.77,3.74,35.57,35.57,0,0,0,9.3-1,10,10,0,0,0,5-2.78,6.48,6.48,0,0,0,1.57-4.39A7.29,7.29,0,0,0,72.48,104a34.31,34.31,0,0,0-9.65-4q-6-1.61-13.12-3.42A104.14,104.14,0,0,1,35.37,91.8a52.18,52.18,0,0,1-13.21-7.91A35.23,35.23,0,0,1,12.51,71q-3.64-8-3.65-20a51.28,51.28,0,0,1,6.35-25.34A46.24,46.24,0,0,1,34.15,7.34Q46.75.5,65.53.5A93.76,93.76,0,0,1,89.86,3.71a68.81,68.81,0,0,1,21.55,9.83L99.07,50.11A83.05,83.05,0,0,0,81.6,41.77,52.36,52.36,0,0,0,65.18,39a27.77,27.77,0,0,0-9.39,1.28,10,10,0,0,0-4.95,3.42,8.07,8.07,0,0,0-1.48,4.71A6.88,6.88,0,0,0,53,54.49a34.14,34.14,0,0,0,9.65,3.74q6,1.5,13.21,3.21a92.69,92.69,0,0,1,14.34,4.7,53.32,53.32,0,0,1,13.12,7.91A35.59,35.59,0,0,1,113,86.88q3.64,7.92,3.65,19.67a51,51,0,0,1-6.35,25.13,47,47,0,0,1-18.86,18.39Q78.91,157,60,157Z"/><path class="cls-5" d="M189.45,157h43.81l-25.54-46a46.06,46.06,0,0,0,16.15-17.36q6.78-12.51,6.78-29.83t-6.78-30a47.19,47.19,0,0,0-19.21-19.57Q192.24,7.34,175.2,7.34H116.63V157h41V119.38h11.17ZM185.2,51q4.08,4.71,4.08,12.83T185.2,76.62q-4.09,4.71-12.6,4.7H157.65V46.26H172.6Q181.11,46.26,185.2,51Z"/><rect class="cls-6" x="6.95" y="164.65" width="231.47" height="6.35"/></g></g></svg>