<svg xmlns="http://www.w3.org/2000/svg" viewBox="0 0 421.97 24.92"><defs><style>.cls-1{fill:#020202;stroke:#000;stroke-miterlimit:10;}</style></defs><g id="Layer_2" data-name="Layer 2"><g id="Layer_1-2" data-name="Layer 1"><path class="cls-1" d="M.5,19.42V1.92H8.35A7.64,7.64,0,0,1,13,3.14a3.91,3.91,0,0,1,1.62,3.31A4.33,4.33,0,0,1,14,8.85a4.28,4.28,0,0,1-1.71,1.5,5.27,5.27,0,0,1-2.33.53l.45-.76a6.33,6.33,0,0,1,2.65.53,4.3,4.3,0,0,1,1.83,1.54,4.41,4.41,0,0,1,.67,2.51,4.07,4.07,0,0,1-1.69,3.49,8.45,8.45,0,0,1-5,1.23Zm2.5-2H8.75a5.89,5.89,0,0,0,3.17-.7A2.42,2.42,0,0,0,13,14.5a2.44,2.44,0,0,0-1.11-2.23,6,6,0,0,0-3.17-.69h-6v-2H8.12a5.29,5.29,0,0,0,3-.7,2.36,2.36,0,0,0,1-2.1,2.36,2.36,0,0,0-1-2.1,5.29,5.29,0,0,0-3-.7H3Z"/><path class="cls-1" d="M26.58,19.42V6.17h2.3v3.6l-.23-.89A4.1,4.1,0,0,1,30.5,6.77a6.53,6.53,0,0,1,3.2-.72V8.38l-.29,0h-.26a4.06,4.06,0,0,0-3,1.15A4.58,4.58,0,0,0,29,12.83v6.59Z"/><path class="cls-1" d="M45.35,3.62a1.59,1.59,0,0,1-1.16-.45,1.44,1.44,0,0,1-.47-1.09A1.5,1.5,0,0,1,44.19,1,1.59,1.59,0,0,1,45.35.5a1.63,1.63,0,0,1,1.16.44A1.41,1.41,0,0,1,47,2a1.57,1.57,0,0,1-.44,1.14A1.59,1.59,0,0,1,45.35,3.62Zm-1.2,15.8V6.17h2.4V19.42Z"/><path class="cls-1" d="M65.7,6.05a6.34,6.34,0,0,1,2.86.62A4.47,4.47,0,0,1,70.5,8.58a6.56,6.56,0,0,1,.7,3.22v7.62H68.8V12.08a4,4,0,0,0-.94-2.91,3.47,3.47,0,0,0-2.64-1A4.75,4.75,0,0,0,63,8.7a3.4,3.4,0,0,0-1.46,1.47A5.23,5.23,0,0,0,61,12.6v6.82h-2.4V6.17h2.3V9.75l-.37-.95a4.61,4.61,0,0,1,2-2A6.6,6.6,0,0,1,65.7,6.05Z"/><path class="cls-1" d="M88.65,18.88a7.2,7.2,0,0,1-3.44-.82,6.14,6.14,0,0,1-2.4-2.26,6.3,6.3,0,0,1-.89-3.35,6.29,6.29,0,0,1,.89-3.36,6.09,6.09,0,0,1,2.4-2.24,7.3,7.3,0,0,1,3.44-.8,6.92,6.92,0,0,1,3.1.69A5.28,5.28,0,0,1,94,8.85a7.1,7.1,0,0,1,.83,3.6A7,7,0,0,1,94,16a5.42,5.42,0,0,1-2.24,2.14A6.68,6.68,0,0,1,88.65,18.88Zm.3,5.54a12.32,12.32,0,0,1-3.54-.51,7.38,7.38,0,0,1-2.79-1.46l1.15-1.85a7,7,0,0,0,2.28,1.26,8.6,8.6,0,0,0,2.82.47,4.67,4.67,0,0,0,3.45-1.11,4.5,4.5,0,0,0,1.1-3.34v-2.8l.25-2.63L93.55,9.8V6.17h2.27V17.62c0,2.34-.58,4.05-1.75,5.15A7.14,7.14,0,0,1,89,24.42Zm0-7.65a4.83,4.83,0,0,0,2.35-.55,4,4,0,0,0,1.62-1.52,4.29,4.29,0,0,0,.58-2.25,4.29,4.29,0,0,0-.58-2.25,4,4,0,0,0-1.62-1.51,4.94,4.94,0,0,0-2.35-.54,5,5,0,0,0-2.36.54,4,4,0,0,0-1.62,1.51,4.2,4.2,0,0,0-.59,2.25,4.2,4.2,0,0,0,.59,2.25,4,4,0,0,0,1.62,1.52A4.92,4.92,0,0,0,88.92,16.77Z"/><path class="cls-1" d="M109.1,3.62a1.59,1.59,0,0,1-1.16-.45,1.44,1.44,0,0,1-.47-1.09A1.5,1.5,0,0,1,107.94,1,1.59,1.59,0,0,1,109.1.5a1.63,1.63,0,0,1,1.16.44A1.41,1.41,0,0,1,110.72,2a1.58,1.58,0,0,1-.45,1.14A1.55,1.55,0,0,1,109.1,3.62Zm-1.2,15.8V6.17h2.4V19.42Z"/><path class="cls-1" d="M129.45,6.05a6.34,6.34,0,0,1,2.86.62,4.47,4.47,0,0,1,1.94,1.91,6.68,6.68,0,0,1,.7,3.22v7.62h-2.4V12.08a4,4,0,0,0-.94-2.91,3.47,3.47,0,0,0-2.64-1,4.72,4.72,0,0,0-2.22.5,3.4,3.4,0,0,0-1.46,1.47,5.11,5.11,0,0,0-.52,2.43v6.82h-2.4V6.17h2.3V9.75l-.37-.95a4.61,4.61,0,0,1,2-2A6.6,6.6,0,0,1,129.45,6.05Z"/><path class="cls-1" d="M152.4,18.88a7.2,7.2,0,0,1-3.44-.82,6.14,6.14,0,0,1-2.4-2.26,6.3,6.3,0,0,1-.89-3.35,6.29,6.29,0,0,1,.89-3.36A6.09,6.09,0,0,1,149,6.85a7.3,7.3,0,0,1,3.44-.8,6.92,6.92,0,0,1,3.1.69,5.28,5.28,0,0,1,2.24,2.11,7.1,7.1,0,0,1,.83,3.6,7,7,0,0,1-.83,3.57,5.42,5.42,0,0,1-2.24,2.14A6.68,6.68,0,0,1,152.4,18.88Zm.3,5.54a12.32,12.32,0,0,1-3.54-.51,7.38,7.38,0,0,1-2.79-1.46l1.15-1.85a7,7,0,0,0,2.28,1.26,8.6,8.6,0,0,0,2.82.47,4.67,4.67,0,0,0,3.45-1.11,4.5,4.5,0,0,0,1.1-3.34v-2.8l.25-2.63L157.3,9.8V6.17h2.27V17.62c0,2.34-.58,4.05-1.75,5.15A7.14,7.14,0,0,1,152.7,24.42Zm0-7.65a4.83,4.83,0,0,0,2.35-.55,4,4,0,0,0,1.62-1.52,4.29,4.29,0,0,0,.58-2.25,4.29,4.29,0,0,0-.58-2.25A4,4,0,0,0,155,8.69a4.94,4.94,0,0,0-2.35-.54,5,5,0,0,0-2.36.54,4,4,0,0,0-1.62,1.51,4.2,4.2,0,0,0-.59,2.25,4.2,4.2,0,0,0,.59,2.25,4,4,0,0,0,1.62,1.52A4.92,4.92,0,0,0,152.67,16.77Z"/><path class="cls-1" d="M200.45,19.42V1.92H203v17.5Z"/><path class="cls-1" d="M221,19.58a7.16,7.16,0,0,1-3.55-.88A6.51,6.51,0,0,1,215,16.29a6.8,6.8,0,0,1-.9-3.49,6.76,6.76,0,0,1,.9-3.5,6.46,6.46,0,0,1,2.45-2.39,7.74,7.74,0,0,1,7.09,0A6.37,6.37,0,0,1,227,9.29a6.83,6.83,0,0,1,.89,3.51,6.85,6.85,0,0,1-.89,3.5,6.35,6.35,0,0,1-2.45,2.4A7.15,7.15,0,0,1,221,19.58Zm0-2.11a4.58,4.58,0,0,0,2.29-.57,4.05,4.05,0,0,0,1.59-1.64,5.13,5.13,0,0,0,.57-2.46,5,5,0,0,0-.57-2.46,4.2,4.2,0,0,0-1.59-1.62A4.58,4.58,0,0,0,221,8.15a4.5,4.5,0,0,0-2.27.57,4.36,4.36,0,0,0-1.6,1.62,4.82,4.82,0,0,0-.6,2.46,4.93,4.93,0,0,0,.6,2.46,4.21,4.21,0,0,0,1.6,1.64A4.5,4.5,0,0,0,221,17.47Z"/><path class="cls-1" d="M240.52,19.42V4.1h-6V1.92H249V4.1h-6V19.42Z"/><path class="cls-1" d="M285.42,8.15v-2h8.45v2Zm6.45,11.43a4.25,4.25,0,0,1-3.1-1.08,4.13,4.13,0,0,1-1.1-3.08V3.27h2.4V15.33a2.3,2.3,0,0,0,.54,1.64,2,2,0,0,0,1.54.58,2.8,2.8,0,0,0,1.87-.63l.75,1.73a3.37,3.37,0,0,1-1.31.7A5.61,5.61,0,0,1,291.87,19.58Z"/><path class="cls-1" d="M310.4,19.58a7.11,7.11,0,0,1-3.55-.88,6.44,6.44,0,0,1-2.45-2.41,6.8,6.8,0,0,1-.9-3.49,6.76,6.76,0,0,1,.9-3.5,6.39,6.39,0,0,1,2.45-2.39,7.2,7.2,0,0,1,3.55-.86,7.3,7.3,0,0,1,3.54.86,6.44,6.44,0,0,1,2.45,2.38,6.83,6.83,0,0,1,.88,3.51,6.84,6.84,0,0,1-.88,3.5,6.42,6.42,0,0,1-2.45,2.4A7.2,7.2,0,0,1,310.4,19.58Zm0-2.11a4.6,4.6,0,0,0,2.29-.57,4,4,0,0,0,1.58-1.64,5,5,0,0,0,.58-2.46,4.92,4.92,0,0,0-.58-2.46,4.17,4.17,0,0,0-1.58-1.62,4.6,4.6,0,0,0-2.29-.57,4.54,4.54,0,0,0-2.28.57,4.44,4.44,0,0,0-1.6,1.62,4.82,4.82,0,0,0-.6,2.46,4.93,4.93,0,0,0,.6,2.46,4.28,4.28,0,0,0,1.6,1.64A4.54,4.54,0,0,0,310.4,17.47Z"/><path class="cls-1" d="M356.9,19.42V1.92h2.5V17.25h9.47v2.17Z"/><path class="cls-1" d="M380.1,3.62a1.61,1.61,0,0,1-1.17-.45,1.47,1.47,0,0,1-.46-1.09A1.53,1.53,0,0,1,378.93,1,1.61,1.61,0,0,1,380.1.5a1.64,1.64,0,0,1,1.16.44A1.41,1.41,0,0,1,381.72,2a1.58,1.58,0,0,1-.45,1.14A1.55,1.55,0,0,1,380.1,3.62Zm-1.2,15.8V6.17h2.4V19.42Z"/><path class="cls-1" d="M391.47,8.15v-2h8.45v2Zm2.25,11.27V5a4.24,4.24,0,0,1,1.14-3.11A4.32,4.32,0,0,1,398.1.72a6,6,0,0,1,1.48.19,3.3,3.3,0,0,1,1.22.59l-.73,1.83a2.61,2.61,0,0,0-.85-.47,3,3,0,0,0-1-.16,2.1,2.1,0,0,0-1.6.59A2.48,2.48,0,0,0,396.07,5V6.8l.05,1.1V19.42Z"/><path class="cls-1" d="M415.4,19.58a7.77,7.77,0,0,1-3.74-.88,6.22,6.22,0,0,1-2.5-2.4,6.85,6.85,0,0,1-.89-3.5,7,7,0,0,1,.86-3.5,6.28,6.28,0,0,1,2.38-2.39,6.83,6.83,0,0,1,3.41-.86,6.63,6.63,0,0,1,3.4.85,5.91,5.91,0,0,1,2.31,2.39,7.35,7.35,0,0,1,.84,3.59c0,.09,0,.21,0,.34s0,.26,0,.38H410.15V11.88h10l-1,.59a4.48,4.48,0,0,0-.53-2.27,3.91,3.91,0,0,0-1.51-1.56,4.72,4.72,0,0,0-4.46,0,4,4,0,0,0-1.53,1.57,4.87,4.87,0,0,0-.55,2.31v.4a4.55,4.55,0,0,0,.62,2.37A4.09,4.09,0,0,0,413,16.9a5.38,5.38,0,0,0,2.52.57,5.63,5.63,0,0,0,2.14-.39,4.85,4.85,0,0,0,1.69-1.2l1.32,1.54a5.68,5.68,0,0,1-2.24,1.6A7.68,7.68,0,0,1,415.4,19.58Z"/></g></g></svg>