<svg xmlns="http://www.w3.org/2000/svg" xmlns:xlink="http://www.w3.org/1999/xlink" viewBox="0 0 232.57 171.51"><defs><style>.cls-1,.cls-2,.cls-3{stroke:#0a0ae0;stroke-miterlimit:10;}.cls-1{fill:url(#linear-gradient);}.cls-2{fill:url(#linear-gradient-2);}.cls-3{fill:url(#linear-gradient-3);}</style><linearGradient id="linear-gradient" x1="0.6" y1="78.76" x2="110.27" y2="78.76" gradientUnits="userSpaceOnUse"><stop offset="0" stop-color="#00fd82"/><stop offset="1" stop-color="aqua"/></linearGradient><linearGradient id="linear-gradient-2" x1="110.27" y1="82.18" x2="226.9" y2="82.18" xlink:href="#linear-gradient"/><linearGradient id="linear-gradient-3" x1="0.6" y1="167.83" x2="232.07" y2="167.83" xlink:href="#linear-gradient"/></defs><g id="Layer_2" data-name="Layer 2"><g id="Layer_1-2" data-name="Layer 1"><path class="cls-1" d="M53.61,157a102.28,102.28,0,0,1-29.55-4.28Q9.81,148.46.6,141.62l13.21-36.78a76.76,76.76,0,0,0,19.38,10A62.78,62.78,0,0,0,54,118.53a35.57,35.57,0,0,0,9.3-1,10,10,0,0,0,4.95-2.78,6.52,6.52,0,0,0,1.56-4.39A7.27,7.27,0,0,0,66.12,104a34.1,34.1,0,0,0-9.64-4q-6-1.61-13.13-3.42A104.59,104.59,0,0,1,29,91.8a52.12,52.12,0,0,1-13.2-7.91A35.23,35.23,0,0,1,6.16,71q-3.66-8-3.65-20A51.38,51.38,0,0,1,8.85,25.62a46.32,46.32,0,0,1,19-18.28Q40.4.5,59.17.5A93.78,93.78,0,0,1,83.51,3.71a68.81,68.81,0,0,1,21.55,9.83L92.72,50.11a83.29,83.29,0,0,0-17.47-8.34A52.42,52.42,0,0,0,58.82,39a27.71,27.71,0,0,0-9.38,1.28,10.09,10.09,0,0,0-5,3.42A8.13,8.13,0,0,0,43,48.4a6.86,6.86,0,0,0,3.65,6.09,34.18,34.18,0,0,0,9.64,3.74q6,1.5,13.21,3.21a92,92,0,0,1,14.34,4.7A53.38,53.38,0,0,1,97,74.05a35.57,35.57,0,0,1,9.64,12.83q3.66,7.92,3.65,19.67a50.94,50.94,0,0,1-6.34,25.13,47.08,47.08,0,0,1-18.86,18.39Q72.56,157,53.61,157Z"/><path class="cls-2" d="M183.1,157h43.8l-25.53-46a46.06,46.06,0,0,0,16.15-17.36q6.78-12.51,6.78-29.83t-6.78-30a47.25,47.25,0,0,0-19.21-19.57q-12.44-6.84-29.46-6.84H110.27V157h41V119.38h11.18ZM178.84,51q4.09,4.71,4.09,12.83t-4.09,12.83q-4.08,4.71-12.6,4.7h-15V46.26h15Q174.76,46.26,178.84,51Z"/><rect class="cls-3" x="0.6" y="164.65" width="231.47" height="6.35"/></g></g></svg>